<svg width="19" height="10" viewBox="0 0 19 10" fill="none" xmlns="http://www.w3.org/2000/svg">
<path d="M18.3228 4.77412L14.6299 1.08152C14.4089 0.860563 14.0765 0.794475 13.7878 0.914066C13.499 1.03366 13.3107 1.31538 13.3106 1.62792V3.96805C13.3106 4.07476 13.2241 4.16126 13.1174 4.16126H1.15933C0.519048 4.16126 0 4.68028 0 5.32051C0 5.96075 0.519048 6.47976 1.15933 6.47976H13.1174C13.2241 6.47976 13.3106 6.56627 13.3106 6.67297V9.01311C13.3107 9.32564 13.499 9.60737 13.7878 9.72696C14.0765 9.84655 14.4089 9.78046 14.6299 9.5595L18.3228 5.86691C18.6245 5.56511 18.6245 5.07591 18.3228 4.77412Z" fill="white"/>
</svg>
