<svg width="16" height="18" viewBox="0 0 16 18" fill="none" xmlns="http://www.w3.org/2000/svg">
<path d="M14 7.6665C14 12.3332 8 16.3332 8 16.3332C8 16.3332 2 12.3332 2 7.6665C2 6.0752 2.63214 4.54908 3.75736 3.42386C4.88258 2.29864 6.4087 1.6665 8 1.6665C9.5913 1.6665 11.1174 2.29864 12.2426 3.42386C13.3679 4.54908 14 6.0752 14 7.6665Z" stroke="white" stroke-width="2" stroke-linecap="round" stroke-linejoin="round"/>
<path d="M8 9.6665C9.10457 9.6665 10 8.77107 10 7.6665C10 6.56193 9.10457 5.6665 8 5.6665C6.89543 5.6665 6 6.56193 6 7.6665C6 8.77107 6.89543 9.6665 8 9.6665Z" stroke="white" stroke-width="2" stroke-linecap="round" stroke-linejoin="round"/>
</svg>
