<svg width="25" height="25" viewBox="0 0 25 25" fill="none" xmlns="http://www.w3.org/2000/svg">
<path d="M24.0923 1.2017L19.0142 0.0298249C18.4624 -0.0971282 17.896 0.190958 17.6714 0.708536L15.3277 6.17729C15.1226 6.6558 15.2593 7.21733 15.6646 7.54447C17.4044 8.96848 18.0062 11.4412 16.6415 13.2279C15.6662 14.5049 14.5191 15.6549 13.2332 16.6374C11.4465 18.0026 8.9735 17.3997 7.54934 15.6597C7.21731 15.2544 6.66066 15.1177 6.18215 15.3228L0.713399 17.6665C0.190938 17.896 -0.0971477 18.4624 0.0298055 19.0142L1.20168 24.0923C1.32375 24.6197 1.7925 25.0005 2.34426 25.0005C14.8491 25.0005 25.0005 14.8687 25.0005 2.34428C25.0005 1.7974 24.6245 1.32377 24.0923 1.2017Z" fill="#EA0607"/>
</svg>
