<svg width="125" height="19" viewBox="0 0 125 19" fill="none" xmlns="http://www.w3.org/2000/svg">
<g clip-path="url(#clip0_858_1639)">
<path d="M79.6815 10.7829L78.76 9.03756V4.00073H79.4738L85.9387 11.2961V4.00073H86.8602V12.8718H86.1464L79.6815 5.57645V10.7829Z" fill="black"/>
<path d="M94.3874 12.8235H87.76V3.95239H93.5598L93.9926 4.78178H88.6819V7.90714H91.823L92.2555 8.73653H88.6819V11.9941H93.9546L94.3874 12.8235Z" fill="black"/>
<path d="M95.1354 4.78178H97.3445V12.8235H98.2526V4.78178H101.767V3.95239H94.7029L95.1354 4.78178Z" fill="black"/>
<path d="M68.8254 12.0425H65.6862V4.00073H64.7646V12.8718H68.3929L68.8254 12.0425Z" fill="black"/>
<path fill-rule="evenodd" clip-rule="evenodd" d="M110.468 3.90436C109.507 3.90436 108.629 4.09503 107.839 4.48037L107.838 4.48085C107.056 4.86608 106.437 5.40113 105.984 6.08648C105.53 6.7741 105.304 7.54335 105.304 8.38801C105.304 9.23268 105.53 10.0019 105.984 10.6895C106.437 11.3749 107.056 11.9099 107.838 12.2952L107.839 12.2956C108.629 12.681 109.507 12.8717 110.468 12.8717C111.155 12.8717 111.796 12.7723 112.387 12.5713C112.988 12.37 113.508 12.0746 113.944 11.6832L114.13 11.5154L113.51 10.9441L113.356 11.0748C112.601 11.7157 111.649 12.0422 110.482 12.0422C109.675 12.0422 108.949 11.8807 108.3 11.5614C107.65 11.2333 107.144 10.7905 106.775 10.2334C106.408 9.67837 106.225 9.06515 106.225 8.38801C106.225 7.71084 106.408 7.09766 106.775 6.54257C107.144 5.9858 107.649 5.54715 108.299 5.22714L108.301 5.22619C108.95 4.89916 109.676 4.73375 110.482 4.73375C111.659 4.73375 112.611 5.05702 113.356 5.68921L113.51 5.81988L114.13 5.24857L113.944 5.08078C113.508 4.68899 112.987 4.39747 112.386 4.20424C111.786 4.00374 111.147 3.90436 110.468 3.90436ZM112.387 12.5713L112.388 12.571L112.314 12.3548L112.387 12.5713Z" fill="black"/>
<path fill-rule="evenodd" clip-rule="evenodd" d="M119.529 3.90436C118.568 3.90436 117.69 4.09503 116.899 4.48037L116.898 4.48085C116.118 4.86608 115.497 5.40113 115.045 6.08648C114.591 6.7741 114.365 7.54335 114.365 8.38801C114.365 9.23268 114.591 10.0019 115.045 10.6895C115.497 11.3749 116.118 11.9099 116.898 12.2952L116.899 12.2956C117.69 12.681 118.568 12.8717 119.529 12.8717C120.49 12.8717 121.368 12.681 122.159 12.2956C122.949 11.9106 123.574 11.3755 124.027 10.6895C124.481 10.0019 124.707 9.23268 124.707 8.38801C124.707 7.54335 124.481 6.7741 124.027 6.08648C123.574 5.40045 122.949 4.86539 122.159 4.48037C121.368 4.09503 120.49 3.90436 119.529 3.90436ZM119.529 4.73375C118.722 4.73375 117.996 4.89543 117.347 5.21491C116.706 5.53467 116.205 5.97322 115.837 6.53054C115.47 7.0852 115.286 7.70231 115.286 8.38801C115.286 9.07369 115.47 9.69083 115.837 10.2455C116.205 10.8028 116.706 11.2414 117.347 11.5611C117.996 11.8806 118.722 12.0422 119.529 12.0422C120.337 12.0422 121.063 11.8805 121.712 11.5609C122.362 11.2409 122.868 10.8022 123.236 10.2455C123.602 9.69083 123.786 9.07369 123.786 8.38801C123.786 7.70231 123.602 7.0852 123.236 6.53054C122.868 5.97378 122.362 5.53513 121.712 5.21512C121.063 4.8955 120.337 4.73375 119.529 4.73375Z" fill="black"/>
<path d="M30.9354 3.95264C30.1873 3.95264 29.5454 4.05512 29.0179 4.26967C28.5061 4.47354 28.1063 4.75692 27.8377 5.12925C27.5736 5.4954 27.439 5.90247 27.439 6.34471C27.439 6.88903 27.6004 7.34754 27.9422 7.69489C28.2603 8.01826 28.6467 8.25688 29.0972 8.41184C29.5282 8.5601 30.0937 8.71051 30.7907 8.86368L30.7927 8.8641C31.4359 8.99951 31.9361 9.12954 32.297 9.25336L32.3012 9.2547C32.6449 9.36524 32.9278 9.53251 33.1553 9.75394L33.158 9.7565C33.3608 9.94744 33.4691 10.2043 33.4691 10.5519C33.4691 10.9854 33.2707 11.3482 32.8305 11.6494C32.4024 11.9404 31.7364 12.1025 30.7987 12.1025C30.1761 12.1025 29.5916 12.0064 29.0435 11.8155C28.5006 11.6151 28.0908 11.3662 27.8019 11.076L27.6271 10.9004L27.0847 11.5361L27.2307 11.6853C27.5999 12.0624 28.1127 12.3586 28.7544 12.5826L28.7554 12.5829C29.4093 12.8079 30.0953 12.9199 30.8124 12.9199C31.5689 12.9199 32.2185 12.8216 32.7538 12.6163C33.2826 12.4134 33.6933 12.1308 33.9635 11.757C34.237 11.3913 34.3771 10.9836 34.3771 10.5399C34.3771 10.0038 34.2158 9.55312 33.8742 9.21391C33.5643 8.88959 33.1813 8.6549 32.7307 8.50818C32.3 8.36012 31.7351 8.2099 31.0391 8.05696L31.0378 8.05667C30.4041 7.9214 29.9032 7.79133 29.532 7.66705C29.1863 7.54837 28.8963 7.37999 28.6581 7.16408C28.4554 6.96541 28.347 6.7001 28.347 6.34471C28.347 5.90724 28.5404 5.54396 28.9623 5.24444C29.3904 4.93911 30.0418 4.77 30.9491 4.77C31.3736 4.77 31.804 4.83095 32.2409 4.95385L32.2456 4.95506C32.6889 5.06967 33.0855 5.24071 33.4372 5.46695L33.6308 5.59149L34.0772 4.88517L33.8938 4.76114C33.513 4.50369 33.0556 4.30617 32.5262 4.16484C32.0055 4.0234 31.4751 3.95264 30.9354 3.95264Z" fill="black"/>
<path d="M35.888 4.00073H34.9663V9.09743C34.9663 10.3179 35.3075 11.2807 36.0239 11.9454L36.025 11.9465C36.7444 12.6049 37.7312 12.9199 38.9549 12.9199C40.1785 12.9199 41.1616 12.6049 41.8724 11.9454C42.5887 11.2807 42.9299 10.3179 42.9299 9.09743V4.00073H42.0219V9.08539C42.0219 10.1197 41.746 10.8598 41.2316 11.348C40.7221 11.832 39.9751 12.0906 38.9549 12.0906C37.9255 12.0906 37.1744 11.8319 36.6653 11.3486C36.1596 10.8607 35.888 10.1203 35.888 9.08539V4.00073Z" fill="black"/>
<path d="M44.4862 4.00073H43.7722V12.8718H44.6939V5.57645L51.1585 12.8718H51.8725V4.00073H50.9509V11.2961L44.4862 4.00073Z" fill="black"/>
<path fill-rule="evenodd" clip-rule="evenodd" d="M59.9485 4.00073H56.3975V12.8718H57.3191V10.047H59.9485C61.1703 10.047 62.1547 9.7972 62.8734 9.26927C63.6098 8.72682 63.9781 7.96751 63.9781 7.01787C63.9781 6.07591 63.6094 5.32453 62.8734 4.7904C62.1547 4.25436 61.1703 4.00073 59.9485 4.00073ZM59.976 4.83012H57.3191V9.21765H59.976C61.0166 9.21765 61.7821 9.01375 62.3022 8.63673C62.8119 8.25934 63.0703 7.72981 63.0703 7.01787C63.0703 6.31453 62.8125 5.79337 62.3029 5.42367L62.3012 5.42245C61.7814 5.03797 61.0166 4.83012 59.976 4.83012Z" fill="black"/>
<path d="M74.949 4.00073H74.2221L69.5513 12.8718H70.5739L71.9233 10.2849L74.5918 5.19095L78.5969 12.8718H79.6198L74.949 4.00073Z" fill="black"/>
<path d="M74.5926 9.26575C74.4189 9.26575 74.2626 9.32565 74.1317 9.439C73.991 9.55228 73.9128 9.70794 73.9128 9.89077C73.9128 10.066 73.9799 10.2206 74.1049 10.3426L74.1134 10.351L74.1225 10.3584C74.2583 10.4656 74.4189 10.5158 74.5926 10.5158C74.7657 10.5158 74.9273 10.4656 75.0578 10.3508C75.1939 10.2313 75.2721 10.0745 75.2721 9.89077C75.2721 9.70993 75.1959 9.55569 75.0581 9.44269C74.9296 9.32172 74.7686 9.26575 74.5926 9.26575Z" fill="black"/>
<path opacity="0.5" d="M29.3593 17.5354L28.8718 16.8413C28.8115 16.8456 28.7642 16.8477 28.7297 16.8477H28.1712V17.5354H27.8484V15.2755H28.7297C29.0225 15.2755 29.2527 15.3455 29.4206 15.4854C29.5885 15.6253 29.6724 15.8179 29.6724 16.0632C29.6724 16.2376 29.6294 16.3861 29.5433 16.5088C29.4572 16.6314 29.3345 16.7208 29.1753 16.7767L29.7112 17.5354H29.3593ZM28.7201 16.5733C28.9245 16.5733 29.0806 16.5292 29.1882 16.441C29.2958 16.3527 29.3496 16.2268 29.3496 16.0632C29.3496 15.8997 29.2958 15.7748 29.1882 15.6887C29.0806 15.6005 28.9245 15.5564 28.7201 15.5564H28.1712V16.5733H28.7201ZM32.7703 17.2545V17.5354H31.1303V15.2755H32.7251V15.5564H31.4531V16.2505H32.5863V16.5249H31.4531V17.2545H32.7703ZM35.6692 16.9704H34.4682L34.2196 17.5354H33.8871L34.9105 15.2755H35.2301L36.2567 17.5354H35.9178L35.6692 16.9704ZM35.5562 16.7122L35.0687 15.6048L34.5812 16.7122H35.5562ZM37.5301 15.2755H37.8529V17.2545H39.0765V17.5354H37.5301V15.2755ZM43.8265 17.2545V17.5354H42.1865V15.2755H43.7813V15.5564H42.5093V16.2505H43.6425V16.5249H42.5093V17.2545H43.8265ZM45.9441 17.5612C45.774 17.5612 45.6094 17.5354 45.4501 17.4838C45.293 17.43 45.1692 17.3611 45.0788 17.2771L45.1983 17.0253C45.2844 17.1028 45.3942 17.1663 45.5276 17.2158C45.6632 17.2631 45.802 17.2868 45.9441 17.2868C46.1313 17.2868 46.2712 17.2556 46.3638 17.1932C46.4563 17.1286 46.5026 17.0436 46.5026 16.9381C46.5026 16.8607 46.4768 16.7983 46.4251 16.7509C46.3756 16.7014 46.3132 16.6637 46.2379 16.6379C46.1647 16.6121 46.0603 16.583 45.9247 16.5507C45.7547 16.5099 45.6169 16.469 45.5114 16.4281C45.4081 16.3872 45.3188 16.3248 45.2435 16.2408C45.1703 16.1547 45.1337 16.0396 45.1337 15.8954C45.1337 15.7748 45.1649 15.6662 45.2274 15.5693C45.2919 15.4724 45.3888 15.395 45.5179 15.3368C45.647 15.2787 45.8074 15.2497 45.9989 15.2497C46.1324 15.2497 46.2637 15.2669 46.3928 15.3013C46.5219 15.3358 46.6328 15.3853 46.7253 15.4499L46.6188 15.7081C46.5241 15.6479 46.4229 15.6027 46.3153 15.5725C46.2077 15.5403 46.1023 15.5241 45.9989 15.5241C45.816 15.5241 45.6783 15.5575 45.5857 15.6242C45.4953 15.6909 45.4501 15.777 45.4501 15.8825C45.4501 15.9599 45.476 16.0234 45.5276 16.0729C45.5793 16.1203 45.6428 16.158 45.7181 16.1859C45.7956 16.2118 45.9 16.2397 46.0312 16.2699C46.2013 16.3108 46.3379 16.3516 46.4412 16.3925C46.5445 16.4334 46.6328 16.4958 46.706 16.5798C46.7813 16.6637 46.819 16.7767 46.819 16.9188C46.819 17.0372 46.7867 17.1458 46.7221 17.2449C46.6575 17.3417 46.5596 17.4192 46.4283 17.4773C46.297 17.5333 46.1356 17.5612 45.9441 17.5612ZM48.6441 15.5564H47.8693V15.2755H49.7385V15.5564H48.9637V17.5354H48.6441V15.5564ZM52.3528 16.9704H51.1518L50.9032 17.5354H50.5707L51.5941 15.2755H51.9137L52.9403 17.5354H52.6013L52.3528 16.9704ZM52.2397 16.7122L51.7523 15.6048L51.2648 16.7122H52.2397ZM54.5489 15.5564H53.7741V15.2755H55.6433V15.5564H54.8685V17.5354H54.5489V15.5564ZM58.5712 17.2545V17.5354H56.9312V15.2755H58.5261V15.5564H57.2541V16.2505H58.3872V16.5249H57.2541V17.2545H58.5712Z" fill="black"/>
<path fill-rule="evenodd" clip-rule="evenodd" d="M74.1304 9.43982C74.2612 9.3265 74.4179 9.2666 74.5913 9.2666C74.7673 9.2666 74.9286 9.32257 75.0568 9.44355C75.1946 9.55654 75.2711 9.71079 75.2711 9.89166C75.2711 10.0753 75.1926 10.2321 75.0568 10.3516C74.926 10.4665 74.7647 10.5167 74.5913 10.5167C74.4176 10.5167 74.257 10.4664 74.1216 10.3592L74.1121 10.3518L74.1036 10.3435C73.9789 10.2215 73.9119 10.0669 73.9119 9.89166C73.9119 9.70879 73.9901 9.55314 74.1304 9.43982Z" fill="#EA0607"/>
</g>
<g clip-path="url(#clip1_858_1639)">
<path d="M0.438955 17.5341C0.301171 17.5341 0.213977 17.3862 0.280685 17.2656L0.750092 16.4173C0.775136 16.372 0.818358 16.3397 0.86883 16.3284L8.4016 14.6412C8.53415 14.6115 8.65092 14.7331 8.61591 14.8644L7.93982 17.3998C7.91871 17.479 7.84697 17.5341 7.76505 17.5341H0.438955Z" fill="#EA0607"/>
<path d="M0.438955 17.5341C0.301171 17.5341 0.213977 17.3862 0.280685 17.2656L0.750092 16.4173C0.775136 16.372 0.818358 16.3397 0.86883 16.3284L8.4016 14.6412C8.53415 14.6115 8.65092 14.7331 8.61591 14.8644L7.93982 17.3998C7.91871 17.479 7.84697 17.5341 7.76505 17.5341H0.438955Z" fill="#EA0607"/>
<path d="M10.1554 17.2563C10.079 17.3768 10.1655 17.5341 10.3081 17.5341H11.8002C11.9395 17.5341 12.0265 17.3832 11.9567 17.2626L11.2446 16.0325C11.1765 15.9149 11.008 15.9116 10.9352 16.0263L10.1554 17.2563Z" fill="#EA0607"/>
<path d="M10.1554 17.2563C10.079 17.3768 10.1655 17.5341 10.3081 17.5341H11.8002C11.9395 17.5341 12.0265 17.3832 11.9567 17.2626L11.2446 16.0325C11.1765 15.9149 11.008 15.9116 10.9352 16.0263L10.1554 17.2563Z" fill="#EA0607"/>
<path d="M14.1944 17.3927C14.2129 17.4753 14.2862 17.534 14.3709 17.534H19.3321C19.4699 17.534 19.5571 17.3861 19.4904 17.2656L19.0193 16.4144C18.9956 16.3713 18.9552 16.3398 18.9077 16.3272L13.9295 14.9997C13.7983 14.9647 13.6767 15.0814 13.7064 15.214L14.1944 17.3927Z" fill="#EA0607"/>
<path d="M14.1944 17.3927C14.2129 17.4753 14.2862 17.534 14.3709 17.534H19.3321C19.4699 17.534 19.5571 17.3861 19.4904 17.2656L19.0193 16.4144C18.9956 16.3713 18.9552 16.3398 18.9077 16.3272L13.9295 14.9997C13.7983 14.9647 13.6767 15.0814 13.7064 15.214L14.1944 17.3927Z" fill="#EA0607"/>
<path d="M17.1094 13.6708C17.2667 13.7794 17.463 13.6016 17.3704 13.4343L16.318 11.5323C16.2703 11.4462 16.1627 11.414 16.0755 11.4598L15.1087 11.968C14.9883 12.0313 14.9782 12.1997 15.0901 12.277L17.1094 13.6708Z" fill="#EA0607"/>
<path d="M17.1094 13.6708C17.2667 13.7794 17.463 13.6016 17.3704 13.4343L16.318 11.5323C16.2703 11.4462 16.1627 11.414 16.0755 11.4598L15.1087 11.968C14.9883 12.0313 14.9782 12.1997 15.0901 12.277L17.1094 13.6708Z" fill="#EA0607"/>
<path d="M14.8983 9.45918C15.0199 9.43691 15.0838 9.30188 15.0239 9.19368L14.4774 8.20591C14.4003 8.06651 14.1937 8.08766 14.1464 8.23975L13.7877 9.39345C13.7473 9.52327 13.8592 9.64957 13.993 9.62506L14.8983 9.45918Z" fill="#EA0607"/>
<path d="M14.8983 9.45918C15.0199 9.43691 15.0838 9.30188 15.0239 9.19368L14.4774 8.20591C14.4003 8.06651 14.1937 8.08766 14.1464 8.23975L13.7877 9.39345C13.7473 9.52327 13.8592 9.64957 13.993 9.62506L14.8983 9.45918Z" fill="#EA0607"/>
<path d="M13.1168 5.95442C13.1558 5.8979 13.1595 5.8242 13.1262 5.76411L10.0437 0.193285C9.97492 0.0688721 9.79607 0.0688729 9.72721 0.193285L8.20303 2.94787C8.17355 3.00116 8.17286 3.0657 8.20119 3.11961L11.033 8.50708C11.0963 8.62741 11.2648 8.63755 11.342 8.52567L13.1168 5.95442Z" fill="#EA0607"/>
<path d="M13.1168 5.95442C13.1558 5.8979 13.1595 5.8242 13.1262 5.76411L10.0437 0.193285C9.97492 0.0688721 9.79607 0.0688729 9.72721 0.193285L8.20303 2.94787C8.17355 3.00116 8.17286 3.0657 8.20119 3.11961L11.033 8.50708C11.0963 8.62741 11.2648 8.63755 11.342 8.52567L13.1168 5.95442Z" fill="#EA0607"/>
<path d="M7.74146 4.44487C7.71082 4.27775 7.48754 4.24125 7.40526 4.38991L5.10008 8.55595C5.0446 8.65625 5.0952 8.78223 5.20467 8.81624L8.45869 9.82801C8.58852 9.86839 8.71482 9.75643 8.6903 9.62268L7.74146 4.44487Z" fill="#EA0607"/>
<path d="M7.74146 4.44487C7.71082 4.27775 7.48754 4.24125 7.40526 4.38991L5.10008 8.55595C5.0446 8.65625 5.0952 8.78223 5.20467 8.81624L8.45869 9.82801C8.58852 9.86839 8.71482 9.75643 8.6903 9.62268L7.74146 4.44487Z" fill="#EA0607"/>
<path d="M4.55089 9.94386C4.46293 9.8881 4.3462 9.91794 4.29577 10.009L1.29535 15.4316C1.20654 15.5921 1.3855 15.7676 1.54425 15.6757L7.58299 12.1795C7.70052 12.1114 7.70393 11.9429 7.5892 11.8702L4.55089 9.94386Z" fill="#EA0607"/>
<path d="M4.55089 9.94386C4.46293 9.8881 4.3462 9.91794 4.29577 10.009L1.29535 15.4316C1.20654 15.5921 1.3855 15.7676 1.54425 15.6757L7.58299 12.1795C7.70052 12.1114 7.70393 11.9429 7.5892 11.8702L4.55089 9.94386Z" fill="#EA0607"/>
</g>
<defs>
<clipPath id="clip0_858_1639">
<rect width="98.1405" height="14.7211" fill="white" transform="translate(26.8594 3.61572)"/>
</clipPath>
<clipPath id="clip1_858_1639">
<rect width="19.6281" height="17.6252" fill="white"/>
</clipPath>
</defs>
</svg>
