<svg width="242" height="36" viewBox="0 0 242 36" fill="none" xmlns="http://www.w3.org/2000/svg">
<path d="M154.264 20.8758L152.48 17.4967V7.74542H153.862L166.377 21.8693V7.74542H168.162V24.9199H166.78L154.264 10.796V20.8758Z" fill="white"/>
<path d="M182.734 24.8262H169.903V7.65173H181.132L181.969 9.25743H171.688V15.3081H177.769L178.606 16.9138H171.688V23.2205H181.896L182.734 24.8262Z" fill="white"/>
<path d="M184.182 9.25743H188.459V24.8262H190.217V9.25743H197.021V7.65173H183.345L184.182 9.25743Z" fill="white"/>
<path d="M133.246 23.3142H127.168V7.74542H125.384V24.9199H132.409L133.246 23.3142Z" fill="white"/>
<path fill-rule="evenodd" clip-rule="evenodd" d="M213.867 7.55872C212.007 7.55872 210.307 7.92786 208.776 8.67388L208.774 8.67481C207.262 9.42061 206.062 10.4565 205.186 11.7833C204.307 13.1145 203.868 14.6038 203.868 16.2391C203.868 17.8743 204.307 19.3636 205.186 20.6948C206.062 22.0217 207.262 23.0575 208.774 23.8033L208.776 23.8042C210.307 24.5502 212.007 24.9194 213.867 24.9194C215.197 24.9194 216.437 24.7271 217.581 24.3378C218.745 23.9481 219.752 23.3764 220.595 22.6186L220.957 22.2937L219.755 21.1876L219.457 21.4407C217.996 22.6814 216.152 23.3137 213.893 23.3137C212.332 23.3137 210.926 23.0009 209.67 22.3828C208.411 21.7476 207.43 20.8902 206.718 19.8118C206.007 18.7372 205.652 17.55 205.652 16.2391C205.652 14.9281 206.007 13.741 206.718 12.6663C207.43 11.5884 208.409 10.7392 209.668 10.1196L209.672 10.1178C210.927 9.48465 212.332 9.16441 213.893 9.16441C216.173 9.16441 218.016 9.79026 219.458 11.0142L219.755 11.2672L220.957 10.1611L220.595 9.83626C219.751 9.07776 218.743 8.51338 217.579 8.13928C216.418 7.75112 215.18 7.55872 213.867 7.55872ZM217.581 24.3378L217.583 24.3373L217.441 23.9187L217.581 24.3378Z" fill="white"/>
<path fill-rule="evenodd" clip-rule="evenodd" d="M231.409 7.55872C229.549 7.55872 227.849 7.92786 226.317 8.67388L226.316 8.67481C224.804 9.42061 223.603 10.4565 222.728 11.7833C221.849 13.1145 221.41 14.6038 221.41 16.2391C221.41 17.8743 221.849 19.3636 222.728 20.6948C223.603 22.0217 224.804 23.0575 226.316 23.8033L226.317 23.8042C227.849 24.5502 229.549 24.9194 231.409 24.9194C233.269 24.9194 234.969 24.5502 236.5 23.8042C238.03 23.0588 239.24 22.0229 240.116 20.6948C240.995 19.3636 241.434 17.8743 241.434 16.2391C241.434 14.6038 240.995 13.1145 240.116 11.7833C239.24 10.4552 238.03 9.41928 236.5 8.67388C234.969 7.92786 233.269 7.55872 231.409 7.55872ZM231.409 9.16441C229.846 9.16441 228.441 9.47742 227.184 10.0959C225.944 10.715 224.973 11.564 224.26 12.643C223.55 13.7168 223.194 14.9115 223.194 16.2391C223.194 17.5665 223.55 18.7613 224.26 19.8351C224.973 20.9141 225.944 21.7631 227.184 22.3822C228.441 23.0007 229.846 23.3137 231.409 23.3137C232.972 23.3137 234.377 23.0005 235.634 22.3817C236.893 21.7622 237.872 20.913 238.584 19.8351C239.294 18.7613 239.65 17.5665 239.65 16.2391C239.65 14.9115 239.294 13.7168 238.584 12.643C237.872 11.5651 236.893 10.7159 235.634 10.0964C234.377 9.47757 232.972 9.16441 231.409 9.16441Z" fill="white"/>
<path d="M59.8907 7.65234C58.4423 7.65234 57.1997 7.85074 56.1783 8.26611C55.1874 8.66081 54.4135 9.20944 53.8935 9.93027C53.3822 10.6391 53.1217 11.4272 53.1217 12.2834C53.1217 13.3372 53.4342 14.2249 54.0957 14.8973C54.7116 15.5234 55.4598 15.9854 56.3319 16.2854C57.1663 16.5724 58.2612 16.8636 59.6104 17.1601L59.6143 17.1609C60.8597 17.4231 61.8279 17.6748 62.5268 17.9145L62.5349 17.9171C63.2002 18.1311 63.7479 18.455 64.1884 18.8837L64.1937 18.8886C64.5862 19.2583 64.7959 19.7556 64.7959 20.4285C64.7959 21.2679 64.4119 21.9702 63.5595 22.5532C62.7308 23.1167 61.4414 23.4306 59.626 23.4306C58.4207 23.4306 57.289 23.2444 56.228 22.8748C55.1769 22.4868 54.3835 22.005 53.8242 21.4431L53.4858 21.1031L52.4357 22.334L52.7184 22.6228C53.4331 23.3529 54.4259 23.9263 55.6682 24.36L55.6701 24.3606C56.936 24.7961 58.2643 25.013 59.6524 25.013C61.1171 25.013 62.3748 24.8227 63.411 24.4251C64.4348 24.0324 65.2299 23.4852 65.7531 22.7616C66.2825 22.0535 66.5537 21.2643 66.5537 20.4053C66.5537 19.3675 66.2414 18.4949 65.5801 17.8382C64.9802 17.2103 64.2388 16.7559 63.3664 16.4719C62.5325 16.1852 61.4388 15.8944 60.0915 15.5983L60.0889 15.5978C58.8621 15.3359 57.8924 15.0841 57.1736 14.8435C56.5044 14.6137 55.9431 14.2877 55.4818 13.8697C55.0893 13.4851 54.8795 12.9714 54.8795 12.2834C54.8795 11.4365 55.254 10.7331 56.0707 10.1533C56.8995 9.56215 58.1606 9.23477 59.9172 9.23477C60.739 9.23477 61.5723 9.35276 62.4181 9.59069L62.4272 9.59304C63.2854 9.81492 64.0532 10.146 64.7341 10.5841L65.109 10.8252L65.9732 9.45772L65.6181 9.21761C64.881 8.71918 63.9955 8.33679 62.9705 8.06317C61.9624 7.78933 60.9354 7.65234 59.8907 7.65234Z" fill="white"/>
<path d="M69.4794 7.74542H67.695V17.6126C67.695 19.9755 68.3555 21.8394 69.7424 23.1263L69.7447 23.1284C71.1374 24.403 73.0478 25.013 75.417 25.013C77.7858 25.013 79.6891 24.4032 81.0651 23.1263C82.4521 21.8394 83.1126 19.9755 83.1126 17.6126V7.74542H81.3547V17.5893C81.3547 19.5917 80.8205 21.0246 79.8245 21.9697C78.8382 22.9067 77.392 23.4073 75.417 23.4073C73.424 23.4073 71.9699 22.9065 70.9843 21.9708C70.0052 21.0262 69.4794 19.5929 69.4794 17.5893V7.74542Z" fill="white"/>
<path d="M86.1249 7.74542H84.7426V24.9199H86.5269V10.796L99.0425 24.9199H100.425V7.74542H98.6405V21.8693L86.1249 7.74542Z" fill="white"/>
<path fill-rule="evenodd" clip-rule="evenodd" d="M116.06 7.74542H109.186V24.9199H110.97V19.4511H116.06C118.426 19.4511 120.332 18.9674 121.723 17.9453C123.149 16.8951 123.862 15.4251 123.862 13.5866C123.862 11.763 123.148 10.3083 121.723 9.27423C120.332 8.23644 118.426 7.74542 116.06 7.74542ZM116.114 9.35112H110.97V17.8454H116.114C118.128 17.8454 119.61 17.4506 120.617 16.7207C121.604 15.9901 122.104 14.9649 122.104 13.5866C122.104 12.2249 121.605 11.216 120.618 10.5002L120.615 10.4979C119.609 9.75352 118.128 9.35112 116.114 9.35112Z" fill="white"/>
<path d="M145.101 7.74542H143.694L134.651 24.9199H136.631L139.244 19.9116L144.41 10.0497L152.164 24.9199H154.144L145.101 7.74542Z" fill="white"/>
<path d="M144.411 17.9385C144.075 17.9385 143.772 18.0544 143.519 18.2739C143.246 18.4932 143.095 18.7946 143.095 19.1485C143.095 19.4878 143.225 19.7871 143.467 20.0233L143.483 20.0395L143.501 20.0538C143.764 20.2614 144.075 20.3586 144.411 20.3586C144.746 20.3586 145.059 20.2614 145.312 20.0391C145.575 19.8078 145.726 19.5041 145.726 19.1485C145.726 18.7984 145.579 18.4998 145.312 18.281C145.063 18.0468 144.752 17.9385 144.411 17.9385Z" fill="white"/>
<path opacity="0.5" d="M56.8396 33.9485L55.8958 32.6047C55.7791 32.613 55.6874 32.6172 55.6208 32.6172H54.5395V33.9485H53.9145V29.5733H55.6208C56.1875 29.5733 56.6333 29.7088 56.9583 29.9796C57.2833 30.2505 57.4458 30.6234 57.4458 31.0984C57.4458 31.4359 57.3625 31.7234 57.1958 31.9609C57.0291 32.1984 56.7916 32.3713 56.4833 32.4797L57.5208 33.9485H56.8396ZM55.602 32.086C55.9979 32.086 56.3 32.0005 56.5083 31.8297C56.7166 31.6588 56.8208 31.4151 56.8208 31.0984C56.8208 30.7817 56.7166 30.5401 56.5083 30.3734C56.3 30.2026 55.9979 30.1171 55.602 30.1171H54.5395V32.086H55.602ZM63.4433 33.4048V33.9485H60.2682V29.5733H63.3558V30.1171H60.8932V31.4609H63.087V31.9922H60.8932V33.4048H63.4433ZM69.0555 32.8547H66.7304L66.2491 33.9485H65.6053L67.5867 29.5733H68.2054L70.193 33.9485H69.5368L69.0555 32.8547ZM68.8367 32.3547L67.8929 30.2109L66.9492 32.3547H68.8367ZM72.6583 29.5733H73.2832V33.4048H75.6521V33.9485H72.6583V29.5733ZM84.848 33.4048V33.9485H81.6729V29.5733H84.7606V30.1171H82.298V31.4609H84.4918V31.9922H82.298V33.4048H84.848ZM88.9477 33.9985C88.6185 33.9985 88.2998 33.9485 87.9914 33.8485C87.6872 33.7444 87.4476 33.611 87.2726 33.4485L87.5039 32.961C87.6705 33.111 87.8831 33.2339 88.1414 33.3298C88.4039 33.4214 88.6727 33.4673 88.9477 33.4673C89.3102 33.4673 89.5811 33.4068 89.7602 33.286C89.9394 33.161 90.029 32.9964 90.029 32.7922C90.029 32.6422 89.979 32.5214 89.879 32.4297C89.7832 32.3339 89.6623 32.261 89.5165 32.211C89.3748 32.161 89.1727 32.1047 88.9102 32.0422C88.581 31.963 88.3143 31.8839 88.1101 31.8047C87.9101 31.7255 87.7372 31.6047 87.5914 31.4422C87.4497 31.2755 87.3789 31.0526 87.3789 30.7734C87.3789 30.5401 87.4393 30.3297 87.5602 30.1421C87.6852 29.9546 87.8726 29.8046 88.1227 29.6921C88.3727 29.5796 88.6831 29.5234 89.0539 29.5234C89.3123 29.5234 89.5664 29.5567 89.8165 29.6234C90.0665 29.6901 90.2811 29.7859 90.4603 29.9109L90.254 30.4109C90.0706 30.2942 89.8748 30.2067 89.6664 30.1484C89.4581 30.0859 89.2539 30.0546 89.0539 30.0546C88.6998 30.0546 88.4331 30.1192 88.2539 30.2484C88.0789 30.3776 87.9914 30.5442 87.9914 30.7484C87.9914 30.8984 88.0414 31.0213 88.1414 31.1172C88.2414 31.2089 88.3644 31.2818 88.5102 31.3359C88.6602 31.3859 88.8623 31.4401 89.1165 31.4984C89.4457 31.5776 89.7102 31.6568 89.9102 31.7359C90.1102 31.8151 90.2811 31.9359 90.4228 32.0984C90.5686 32.261 90.6415 32.4797 90.6415 32.7547C90.6415 32.9839 90.579 33.1943 90.454 33.386C90.329 33.5735 90.1394 33.7235 89.8853 33.836C89.631 33.9444 89.3185 33.9985 88.9477 33.9985ZM94.1749 30.1171H92.6749V29.5733H96.2938V30.1171H94.7937V33.9485H94.1749V30.1171ZM101.355 32.8547H99.0298L98.5486 33.9485H97.9048L99.8861 29.5733H100.505L102.492 33.9485H101.836L101.355 32.8547ZM101.136 32.3547L100.192 30.2109L99.2486 32.3547H101.136ZM105.607 30.1171H104.107V29.5733H107.725V30.1171H106.225V33.9485H105.607V30.1171ZM113.394 33.4048V33.9485H110.219V29.5733H113.306V30.1171H110.844V31.4609H113.038V31.9922H110.844V33.4048H113.394Z" fill="white"/>
<path fill-rule="evenodd" clip-rule="evenodd" d="M143.517 18.2755C143.77 18.0561 144.073 17.9401 144.409 17.9401C144.75 17.9401 145.062 18.0485 145.31 18.2827C145.577 18.5014 145.725 18.8001 145.725 19.1502C145.725 19.5058 145.573 19.8094 145.31 20.0408C145.057 20.2631 144.745 20.3603 144.409 20.3603C144.073 20.3603 143.762 20.263 143.5 20.0555L143.481 20.0411L143.465 20.025C143.223 19.7888 143.094 19.4894 143.094 19.1502C143.094 18.7962 143.245 18.4949 143.517 18.2755Z" fill="#EA0607"/>
<path d="M0.84996 33.9459C0.58321 33.9459 0.414401 33.6596 0.543548 33.4262L1.45232 31.7838C1.50081 31.6962 1.58448 31.6335 1.6822 31.6116L16.2656 28.3453C16.5223 28.2879 16.7483 28.5232 16.6805 28.7773L15.3716 33.686C15.3308 33.8393 15.1919 33.9459 15.0333 33.9459H0.84996Z" fill="#EA0607"/>
<path d="M0.84996 33.9459C0.58321 33.9459 0.414401 33.6596 0.543548 33.4262L1.45232 31.7838C1.50081 31.6962 1.58448 31.6335 1.6822 31.6116L16.2656 28.3453C16.5223 28.2879 16.7483 28.5232 16.6805 28.7773L15.3716 33.686C15.3308 33.8393 15.1919 33.9459 15.0333 33.9459H0.84996Z" fill="#EA0607"/>
<path d="M19.661 33.4082C19.5132 33.6414 19.6807 33.9459 19.9568 33.9459H22.8454C23.1152 33.9459 23.2836 33.6537 23.1485 33.4203L21.7697 31.0389C21.638 30.8112 21.3117 30.8047 21.1709 31.0268L19.661 33.4082Z" fill="#EA0607"/>
<path d="M19.661 33.4082C19.5132 33.6414 19.6807 33.9459 19.9568 33.9459H22.8454C23.1152 33.9459 23.2836 33.6537 23.1485 33.4203L21.7697 31.0389C21.638 30.8112 21.3117 30.8047 21.1709 31.0268L19.661 33.4082Z" fill="#EA0607"/>
<path d="M27.4803 33.6723C27.5161 33.8323 27.6581 33.9459 27.822 33.9459H37.4269C37.6936 33.9459 37.8625 33.6596 37.7333 33.4262L36.8214 31.7782C36.7754 31.6949 36.6973 31.6339 36.6053 31.6094L26.9676 29.0394C26.7134 28.9717 26.4781 29.1977 26.5356 29.4543L27.4803 33.6723Z" fill="#EA0607"/>
<path d="M27.4803 33.6723C27.5161 33.8323 27.6581 33.9459 27.822 33.9459H37.4269C37.6936 33.9459 37.8625 33.6596 37.7333 33.4262L36.8214 31.7782C36.7754 31.6949 36.6973 31.6339 36.6053 31.6094L26.9676 29.0394C26.7134 28.9717 26.4781 29.1977 26.5356 29.4543L27.4803 33.6723Z" fill="#EA0607"/>
<path d="M33.1238 26.4666C33.4283 26.6768 33.8083 26.3326 33.6292 26.0089L31.5917 22.3265C31.4994 22.1598 31.2909 22.0975 31.1222 22.1861L29.2504 23.17C29.0174 23.2925 28.9978 23.6187 29.2144 23.7682L33.1238 26.4666Z" fill="#EA0607"/>
<path d="M33.1238 26.4666C33.4283 26.6768 33.8083 26.3326 33.6292 26.0089L31.5917 22.3265C31.4994 22.1598 31.2909 22.0975 31.1222 22.1861L29.2504 23.17C29.0174 23.2925 28.9978 23.6187 29.2144 23.7682L33.1238 26.4666Z" fill="#EA0607"/>
<path d="M28.8431 18.3129C29.0785 18.2698 29.2023 18.0083 29.0864 17.7989L28.0282 15.8865C27.8789 15.6167 27.479 15.6576 27.3874 15.9521L26.6929 18.1856C26.6147 18.437 26.8315 18.6815 27.0904 18.634L28.8431 18.3129Z" fill="#EA0607"/>
<path d="M28.8431 18.3129C29.0785 18.2698 29.2023 18.0083 29.0864 17.7989L28.0282 15.8865C27.8789 15.6167 27.479 15.6576 27.3874 15.9521L26.6929 18.1856C26.6147 18.437 26.8315 18.6815 27.0904 18.634L28.8431 18.3129Z" fill="#EA0607"/>
<path d="M25.3943 11.5278C25.4698 11.4183 25.4769 11.2756 25.4125 11.1593L19.4448 0.374189C19.3116 0.133326 18.9653 0.133328 18.832 0.37419L15.8812 5.70707C15.8241 5.81023 15.8228 5.93519 15.8776 6.03955L21.3601 16.4697C21.4826 16.7027 21.8087 16.7223 21.9583 16.5057L25.3943 11.5278Z" fill="#EA0607"/>
<path d="M25.3943 11.5278C25.4698 11.4183 25.4769 11.2756 25.4125 11.1593L19.4448 0.374189C19.3116 0.133326 18.9653 0.133328 18.832 0.37419L15.8812 5.70707C15.8241 5.81023 15.8228 5.93519 15.8776 6.03955L21.3601 16.4697C21.4826 16.7027 21.8087 16.7223 21.9583 16.5057L25.3943 11.5278Z" fill="#EA0607"/>
<path d="M14.9873 8.60527C14.9279 8.28173 14.4957 8.21108 14.3364 8.49887L9.87355 16.5643C9.76614 16.7585 9.86409 17.0024 10.076 17.0683L16.3758 19.027C16.6272 19.1052 16.8717 18.8885 16.8242 18.6295L14.9873 8.60527Z" fill="#EA0607"/>
<path d="M14.9873 8.60527C14.9279 8.28173 14.4957 8.21108 14.3364 8.49887L9.87355 16.5643C9.76614 16.7585 9.86409 17.0024 10.076 17.0683L16.3758 19.027C16.6272 19.1052 16.8717 18.8885 16.8242 18.6295L14.9873 8.60527Z" fill="#EA0607"/>
<path d="M8.81098 19.2513C8.64068 19.1433 8.4147 19.2011 8.31706 19.3774L2.50826 29.8755C2.33631 30.1862 2.68279 30.526 2.99013 30.3481L14.6811 23.5795C14.9087 23.4477 14.9153 23.1215 14.6932 22.9806L8.81098 19.2513Z" fill="#EA0607"/>
<path d="M8.81098 19.2513C8.64068 19.1433 8.4147 19.2011 8.31706 19.3774L2.50826 29.8755C2.33631 30.1862 2.68279 30.526 2.99013 30.3481L14.6811 23.5795C14.9087 23.4477 14.9153 23.1215 14.6932 22.9806L8.81098 19.2513Z" fill="#EA0607"/>
</svg>
